<?xml version="1.0" encoding="UTF-8"?>
<svg width="165px" height="165px" viewBox="0 0 165 165" version="1.1" xmlns="http://www.w3.org/2000/svg" xmlns:xlink="http://www.w3.org/1999/xlink">
    <!-- Generator: Sketch 51.2 (57519) - http://www.bohemiancoding.com/sketch -->
    <title>Stethoscope</title>
    <desc>Created with Sketch.</desc>
    <defs></defs>
    <g id="Stethoscope" stroke="none" stroke-width="1" fill="none" fill-rule="evenodd">
        <g id="stethoscope-(1)" transform="translate(23.000000, 2.000000)" fill="#27BCBD" fill-rule="nonzero">
            <path d="M109.666667,82.6666667 C98.808,82.6666667 89.8373333,90.8266667 88.5173333,101.333333 L59,101.333333 L59,85 C61.7733333,84.3093333 64.1706667,82.552 65.6826667,80.0053333 L100.136,21.736 C102.152,18.336 102.186667,14.2533333 100.229333,10.8186667 C98.272,7.384 94.744,5.33333333 90.7893333,5.33333333 L84.7306667,5.33333333 C83.2266667,2.192 80.0426667,0 76.3333333,0 C72.0773333,0 61.6666667,3.272 61.6666667,9.33333333 C61.6666667,15.3946667 72.0773333,18.6666667 76.3333333,18.6666667 C81.0213333,18.6666667 84.8773333,15.1786667 85.5306667,10.6666667 L90.7866667,10.6666667 C92.8,10.6666667 94.5973333,11.712 95.592,13.4613333 C96.5893333,15.208 96.5706667,17.288 95.544,19.0213333 L61.0906667,77.2906667 C60.0853333,78.9866667 58.3066667,80 56.3333333,80 C54.36,80 52.5813333,78.9866667 51.5573333,77.264 L16.1413333,19.0186667 C15.1146667,17.288 15.096,15.208 16.0933333,13.4613333 C17.0906667,11.712 18.888,10.6666667 20.8986667,10.6666667 L27.1333333,10.6666667 C27.7893333,15.1786667 31.6453333,18.6666667 36.3333333,18.6666667 C40.5893333,18.6666667 51,15.3946667 51,9.33333333 C51,3.272 40.5893333,0 36.3333333,0 C32.624,0 29.44,2.192 27.936,5.33333333 L20.8986667,5.33333333 C16.944,5.33333333 13.416,7.38666667 11.4586667,10.8213333 C9.50133333,14.256 9.536,18.336 11.568,21.7626667 L46.9866667,80.008 C48.496,82.5546667 50.8933333,84.3093333 53.6666667,85 L53.6666667,101.333333 L29.6666667,101.333333 C13.4933333,101.333333 0.333333333,114.493333 0.333333333,130.666667 C0.333333333,146.84 13.4933333,160 29.6666667,160 C45.84,160 59,146.84 59,130.666667 L59,106.666667 L88.5173333,106.666667 C89.8373333,117.173333 98.808,125.333333 109.666667,125.333333 C121.429333,125.333333 131,115.762667 131,104 C131,92.2373333 121.429333,82.6666667 109.666667,82.6666667 Z M76.3333333,13.3333333 C73.0426667,13.3333333 67.3786667,10.696 67.0053333,9.33333333 C67.3786667,7.97066667 73.0426667,5.33333333 76.3333333,5.33333333 C78.5386667,5.33333333 80.3333333,7.128 80.3333333,9.33333333 C80.3333333,11.5386667 78.5386667,13.3333333 76.3333333,13.3333333 Z M36.3333333,5.33333333 C39.624,5.33333333 45.288,7.97066667 45.6613333,9.33333333 C45.288,10.696 39.624,13.3333333 36.3333333,13.3333333 C34.128,13.3333333 32.3333333,11.5386667 32.3333333,9.33333333 C32.3333333,7.128 34.128,5.33333333 36.3333333,5.33333333 Z M53.6666667,130.666667 C53.6666667,143.901333 42.8986667,154.666667 29.6666667,154.666667 C16.4346667,154.666667 5.66666667,143.901333 5.66666667,130.666667 C5.66666667,117.432 16.4346667,106.666667 29.6666667,106.666667 L53.6666667,106.666667 L53.6666667,130.666667 Z M109.666667,120 C100.842667,120 93.6666667,112.824 93.6666667,104 C93.6666667,95.176 100.842667,88 109.666667,88 C118.490667,88 125.666667,95.176 125.666667,104 C125.666667,112.824 118.490667,120 109.666667,120 Z" id="Shape"></path>
            <path d="M109.666667,93.3333333 C103.784,93.3333333 99,98.1173333 99,104 C99,109.882667 103.784,114.666667 109.666667,114.666667 C115.549333,114.666667 120.333333,109.882667 120.333333,104 C120.333333,98.1173333 115.549333,93.3333333 109.666667,93.3333333 Z M109.666667,109.333333 C106.725333,109.333333 104.333333,106.941333 104.333333,104 C104.333333,101.058667 106.725333,98.6666667 109.666667,98.6666667 C112.608,98.6666667 115,101.058667 115,104 C115,106.941333 112.608,109.333333 109.666667,109.333333 Z" id="Shape"></path>
        </g>
    </g>
</svg>