<svg viewBox="-106 0 512 512" xmlns="http://www.w3.org/2000/svg"><path d="m12.796875.433594s-9.058594 73.558594 137 126.085937c0 0-129.070313 36.53125-137 130.074219-7.929687 93.546875 135.125 130.339844 135.125 130.339844s-136.445313 48.300781-129.25 125.066406h268.125s13.554687-76.265625-125.9375-125.066406l31.597656-19.910156s233.886719-108.433594-31.597656-240.503907c0 0 100.0625-32.851562 125.9375-126.085937zm0 0" fill="#f9ced7"/><path d="m160.859375 386.933594 31.597656-19.910156s233.886719-108.433594-31.597656-240.503907c0 0 100.0625-32.851562 125.9375-126.085937h-137v511.566406h137s13.554687-76.265625-125.9375-125.066406zm0 0" fill="#f6b9c4"/><g fill="#ff8597"><path d="m25.332031 199.601562h248.929688v30.015626h-248.929688zm0 0"/><path d="m25.332031 281.898438h248.929688v30.015624h-248.929688zm0 0"/><path d="m25.332031 457.351562h248.929688v30.015626h-248.929688zm0 0"/><path d="m25.332031 18.992188h248.929688v30.019531h-248.929688zm0 0"/></g><path d="m149.796875 199.601562h124.464844v30.015626h-124.464844zm0 0" fill="#ff3f5c"/><path d="m149.796875 281.898438h124.464844v30.015624h-124.464844zm0 0" fill="#ff3f5c"/><path d="m149.796875 457.351562h124.464844v30.015626h-124.464844zm0 0" fill="#ff3f5c"/><path d="m149.796875 18.992188h124.464844v30.019531h-124.464844zm0 0" fill="#ff3f5c"/><path d="m299.59375 255.75c0-33.574219-15.644531-62.261719-47.824219-87.703125-19.246093-15.210937-42.90625-28.113281-67.347656-40.171875 24.441406-12.058594 48.101563-24.960938 67.347656-40.171875 32.179688-25.441406 47.824219-54.128906 47.824219-87.703125h-30c0 52.644531-57.324219 81.574219-119.796875 111.265625-62.472656-29.691406-119.796875-58.621094-119.796875-111.265625h-30c0 33.574219 15.644531 62.261719 47.824219 87.703125 19.242187 15.210937 42.90625 28.113281 67.34375 40.171875-24.4375 12.058594-48.101563 24.960938-67.34375 40.175781-32.179688 25.4375-47.824219 54.128907-47.824219 87.703125 0 33.574219 15.644531 62.261719 47.824219 87.707032 19.246093 15.210937 42.90625 28.113281 67.347656 40.175781-24.441406 12.058593-48.105469 24.960937-67.347656 40.175781-32.179688 25.441406-47.824219 54.128906-47.824219 87.703125h30c0-52.644531 57.324219-81.574219 119.796875-111.269531 62.472656 29.691406 119.796875 58.625 119.796875 111.269531h30c0-33.574219-15.644531-62.261719-47.824219-87.703125-19.246093-15.214844-42.90625-28.117188-67.347656-40.175781 24.441406-12.0625 48.101563-24.960938 67.347656-40.175781 32.179688-25.445313 47.824219-54.136719 47.824219-87.710938zm-149.796875 111.273438c-62.472656-29.695313-119.796875-58.625-119.796875-111.273438 0-52.640625 57.324219-81.574219 119.796875-111.261719 62.472656 29.691407 119.796875 58.621094 119.796875 111.261719 0 52.648438-57.324219 81.578125-119.796875 111.273438zm0 0" fill="#00e7f0"/><path d="m299.59375 255.75c0-33.574219-15.644531-62.261719-47.824219-87.703125-19.246093-15.210937-42.90625-28.113281-67.347656-40.171875 24.441406-12.058594 48.101563-24.960938 67.347656-40.171875 32.179688-25.441406 47.824219-54.128906 47.824219-87.703125h-30c0 52.644531-57.324219 81.574219-119.796875 111.265625v33.222656c62.472656 29.691407 119.796875 58.621094 119.796875 111.261719 0 52.648438-57.324219 81.578125-119.796875 111.273438v33.222656c62.472656 29.691406 119.796875 58.625 119.796875 111.269531h30c0-33.574219-15.644531-62.261719-47.824219-87.707031-19.246093-15.214844-42.90625-28.113282-67.347656-40.175782 24.441406-12.058593 48.101563-24.960937 67.347656-40.175781 32.179688-25.441406 47.824219-54.132812 47.824219-87.707031zm0 0" fill="#00c7ce"/></svg>