<?xml version="1.0" encoding="UTF-8"?>
<svg width="3171px" height="7538px" viewBox="0 0 3171 7538" version="1.1" xmlns="http://www.w3.org/2000/svg" xmlns:xlink="http://www.w3.org/1999/xlink">
    <!-- Generator: Sketch 51.3 (57544) - http://www.bohemiancoding.com/sketch -->
    <title>Shape</title>
    <desc>Created with Sketch.</desc>
    <defs></defs>
    <g id="Page-1" stroke="none" stroke-width="1" fill="none" fill-rule="evenodd">
        <g id="Artboard-4" transform="translate(-983.000000, -7110.000000)" fill="#27BCBD" fill-rule="nonzero">
            <g id="-" transform="translate(983.000000, 7110.000000)">
                <path d="M1625.78614,4309.59763 C1614.67899,4440.39189 1703.46311,5132.68807 1749.2801,5404.14095 C1771.0925,5532.74312 1830.90304,5742.26968 1809.38293,5853.51786 C1778.65559,6008.57116 1769.77718,6209.21978 1786.69366,6326.05778 C1797.36237,6397.00818 1830.93957,6724.24956 1782.89384,6843.93726 C1757.75661,6906.70389 1711.68386,7228.35546 1711.68386,7228.35546 C1591.66088,7531.37433 1659.39988,7516.46817 1659.39988,7516.46817 C1696.55768,7562.06349 1760.20457,7520.04857 1760.20457,7520.04857 C1808.68874,7550.95694 1842.26594,7512.7051 1842.26594,7512.7051 C1883.88122,7547.15733 1932.40192,7508.46707 1932.40192,7508.46707 C1984.68591,7535.61236 2033.17008,7485.55981 2033.17008,7485.55981 C2063.20323,7500.68518 2070.5471,7481.57752 2070.5471,7481.57752 C2160.64654,7475.80504 2020.27263,7187.47312 2020.27263,7187.47312 C1986.65889,6928.51511 2053.63062,6784.38569 2053.63062,6784.38569 C2272.99682,6133.88521 2284.14051,5961.25872 2196.45249,5716.11082 C2171.75369,5645.3431 2165.50592,5617.32097 2176.86883,5586.59528 C2203.1387,5515.68142 2183.99348,5230.45495 2216.03614,5117.19736 C2277.8562,4898.75634 2338.83591,4344.78056 2370.62282,4086.2975 C2413.3342,3738.12173 2219.32445,3271.28123 2219.32445,3271.28123 C2176.83229,3081.30075 2239.12732,2404.42221 2239.12732,2404.42221 C2326.12115,2539.7833 2322.79631,2778.72029 2322.79631,2778.72029 C2308.98545,3029.31186 2525.24604,3412.3052 2525.24604,3412.3052 C2629.15635,3570.57356 2668.50635,3720.73121 2668.50635,3731.87429 C2668.50635,3777.46961 2658.53183,3887.84096 2658.53183,3887.84096 L2662.51433,3983.96378 C2664.30463,4008.44203 2678.07896,4092.72761 2675.85022,4133.4638 C2659.62793,4384.16497 2699.45291,4336.99866 2699.45291,4336.99866 C2733.06665,4336.99866 2770.00523,4135.25401 2770.00523,4135.25401 C2770.00523,4187.27943 2757.29047,4343.02689 2785.35064,4401.7747 C2818.92784,4471.84827 2843.62664,4389.75478 2844.06508,4373.27763 C2852.94349,4054.07388 2872.12524,4137.70183 2872.12524,4137.70183 C2890.79549,4396.65984 2913.74052,4455.15191 2954.88082,4434.91168 C2986.0466,4420.04206 2957.54799,4124.14745 2957.54799,4124.14745 C3010.92808,4299.91593 3051.41072,4327.90152 3051.41072,4327.90152 C3139.50064,4389.75478 3085.02446,4218.91849 3072.78467,4185.08735 C3007.60324,4005.33658 3005.59372,3943.04491 3005.59372,3943.04491 C3087.03398,4104.56485 3148.41559,4098.57316 3148.41559,4098.57316 C3227.84633,4073.21807 3078.99591,3844.5108 2991.78286,3734.94321 C2947.28119,3679.11817 2889.88207,3604.36816 2873.22134,3559.97849 C2846.07459,3484.79006 2825.57752,3243.07643 2825.57752,3243.07643 C2817.35677,2957.84997 2746.84098,2833.96077 2746.84098,2833.96077 C2626.26995,2640.98444 2603.58067,2281.00797 2603.58067,2281.00797 L2598.24632,1673.2531 C2555.97338,1258.69376 2250.49023,1255.69792 2250.49023,1255.69792 C1941.71878,1209.73725 1898.75165,1109.9975 1898.75165,1109.9975 C1833.35099,1015.88409 1870.72801,835.475705 1870.72801,835.475705 C1924.98498,791.341777 1945.9205,674.174969 1945.9205,674.174969 C2036.01994,605.087836 2031.599,503.996298 1989.98373,505.092339 C1956.5892,505.969172 1964.1523,478.312398 1964.1523,478.312398 C2020.49185,23.2360744 1616.46928,0 1616.46928,0 L1554.79537,0 C1554.79537,0 1150.59012,23.2360744 1206.8566,478.202794 C1206.8566,478.202794 1214.41969,505.896103 1180.73288,504.982735 C1139.22721,503.886694 1135.35433,604.978231 1225.12494,674.065364 C1225.12494,674.065364 1246.02392,791.195639 1300.31742,835.366101 C1300.31742,835.366101 1337.69444,1015.77449 1272.29379,1109.8879 C1272.29379,1109.8879 1229.47281,1209.62765 920.555206,1255.58831 C920.555206,1255.58831 614.56054,1258.58416 572.945265,1673.14349 L567.172471,2280.89836 C567.172471,2280.89836 544.921635,2640.87484 423.875625,2833.85117 C423.875625,2833.85117 353.68867,2957.7769 345.577528,3242.96683 C345.577528,3242.96683 325.007379,3484.68046 297.970238,3559.86889 C281.492197,3604.03935 224.129615,3678.78936 179.262576,3734.8336 C91.2822592,3844.18199 -56.5816706,4072.41431 22.520234,4098.46355 C22.520234,4098.46355 84.2306806,4104.45525 165.342102,3942.9353 C165.342102,3942.9353 163.661415,4004.78856 98.5895945,4184.97774 C85.8017577,4218.37047 31.3986464,4389.20676 119.52511,4327.79192 C119.52511,4327.79192 160.336578,4299.7698 213.387832,4124.03785 C213.387832,4124.03785 184.925761,4419.93245 216.60306,4434.80208 C257.999114,4455.07884 280.57878,4396.55024 299.249022,4137.59223 C299.249022,4137.59223 318.39424,4053.96428 327.272653,4373.16802 C327.711093,4389.64518 351.861836,4471.73867 385.585188,4401.6651 C414.047259,4342.91729 401.259423,4187.42557 401.259423,4135.1444 C401.259423,4135.1444 437.759562,4336.88906 471.884818,4336.88906 C471.884818,4336.88906 512.038626,4384.05537 495.560585,4133.3542 C492.893407,4092.39879 507.252321,4008.33243 509.042618,3983.85418 L512.915506,3887.73136 C512.915506,3887.73136 502.904457,3777.61575 502.904457,3731.76469 C502.904457,3720.4024 542.290994,3570.46395 646.164765,3412.1956 C646.164765,3412.1956 862.206133,3029.01958 848.28566,2778.61069 C848.28566,2778.61069 845.289652,2539.6737 932.283479,2404.31261 C932.283479,2404.31261 994.030462,3081.15461 952.195968,3271.17162 C952.195968,3271.17162 757.857385,3738.01212 800.714907,4086.18789 C832.282595,4345.36511 893.152698,4898.6102 955.118902,5117.08775 C987.490397,5230.12614 968.345179,5515.27953 994.286219,5586.48568 C1005.97796,5617.43058 999.839794,5645.92765 974.70256,5716.00122 C887.489513,5961.14911 898.596663,6133.81214 1117.96287,6784.27609 C1117.96287,6784.27609 1185.48265,6928.40551 1151.35739,7187.36352 C1151.35739,7187.36352 1011.2027,7475.69544 1100.97331,7481.46792 C1100.97331,7481.46792 1107.98836,7500.57557 1138.35033,7485.4502 C1138.35033,7485.4502 1186.8345,7535.50275 1239.2281,7508.35747 C1239.2281,7508.35747 1287.7488,7547.08426 1329.21793,7512.59549 C1329.21793,7512.59549 1362.46631,7550.84733 1410.95048,7519.93897 C1410.95048,7519.93897 1474.59737,7562.86725 1512.41283,7516.35857 C1512.41283,7516.35857 1579.60378,7531.26473 1459.9827,7228.24586 C1459.9827,7228.24586 1414.16571,6906.99617 1388.91886,6843.82766 C1340.76352,6724.17649 1374.77917,6396.24095 1385.04597,6325.94817 C1401.59709,6208.45255 1392.71868,6008.27889 1362.46631,5853.40826 C1340.32508,5742.41581 1400.28177,5532.85273 1422.42299,5404.03135 C1467.91116,5132.83421 1557.06065,4440.50149 1545.91696,4309.48803 L1582.74593,4322.42132 C1609.12541,4322.49438 1625.78614,4309.59763 1625.78614,4309.59763 Z" id="Shape"></path>
            </g>
        </g>
    </g>
</svg>