<?xml version="1.0" encoding="iso-8859-1"?>
<!-- Generator: Adobe Illustrator 19.0.0, SVG Export Plug-In . SVG Version: 6.00 Build 0)  -->
<svg version="1.1" id="Capa_1" xmlns="http://www.w3.org/2000/svg" xmlns:xlink="http://www.w3.org/1999/xlink" x="0px" y="0px"
	 viewBox="0 0 512.001 512.001" style="enable-background:new 0 0 512.001 512.001;" xml:space="preserve">
<path style="fill:#A0C1B7;" d="M488.5,158.075v18.393c0,17.185-7.255,33.572-19.98,45.132l0,0l0.124,0.741
	c5.962,35.745,8.959,71.921,8.959,108.16l0,0c0,36.238-2.996,72.414-8.958,108.159l-0.124,0.741l0,0
	c12.725,11.559,19.98,27.946,19.98,45.131v18.394c0,5.012-4.066,9.075-9.082,9.075h-21.943c-16.189,0-31.714-6.426-43.161-17.864
	l-0.286-0.286h-0.001c-48.39,6.044-97.11,9.075-145.876,9.075h-26.117c-48.767,0-97.487-3.031-145.877-9.075l0,0l-0.001,0.001
	C84.526,505.472,68.752,512,52.306,512H32.582c-5.016,0-9.082-4.063-9.082-9.075v-19.708c0-16.435,6.534-32.196,18.164-43.817l0,0
	l-0.124-0.741c-5.962-35.745-8.958-71.921-8.958-108.159l0,0c0-36.238,2.996-72.414,8.958-108.159l0.124-0.741l-0.001-0.001
	C30.033,209.978,23.5,194.217,23.5,177.783v-19.708c0-5.012,4.066-9.075,9.082-9.075h19.723c16.447,0,32.221,6.529,43.851,18.15l0,0
	l0,0c48.391-6.044,97.111-9.075,145.879-9.075h26.114c48.768,0,97.488,3.031,145.879,9.075l0,0l0.285-0.284
	C425.76,155.426,441.287,149,457.476,149h21.942C484.434,149,488.5,153.063,488.5,158.075z"/>
<path style="fill:#9AB7AE;" d="M468.52,221.6l0.124,0.741c5.962,35.745,8.958,71.921,8.958,108.16l0,0
	c0,36.238-2.996,72.414-8.958,108.159l-0.124,0.741c12.726,11.559,19.98,27.946,19.98,45.131v18.394
	c0,5.012-4.066,9.075-9.082,9.075h-21.943c-16.189,0-31.714-6.426-43.161-17.864l-0.286-0.286h-0.001
	c-48.39,6.044-97.11,9.075-145.876,9.075h-26.117c-48.767,0-97.487-3.031-145.877-9.075l0,0l-0.001,0.001
	C84.526,505.472,68.752,512,52.306,512H32.582c-5.016,0-9.082-4.063-9.082-9.075v-19.708c0-16.435,6.534-32.196,18.164-43.817
	c0,0,22.003,30.6,118.336,30.6c154.64,0,270-105.996,270-221.273c0-29.843-3.5-51.227-13.555-83.89
	C427.651,154.671,442.27,149,457.476,149h21.942c5.016,0,9.082,4.063,9.082,9.075v18.393C488.5,193.653,481.245,210.04,468.52,221.6
	z"/>
<path style="fill:#FFCF56;" d="M433.815,232.166c0.306,47.963-22.403,90.633-57.735,117.655c0.001-0.099,0.007-0.197,0.007-0.297
	c0-15.841-12.852-28.682-28.705-28.682s-28.705,12.841-28.705,28.682c0,9.132,4.277,17.258,10.932,22.509
	c0.633,0.499,0.449,1.508-0.323,1.741C315.844,377.821,301.59,380,286.827,380c-19.645,0-38.386-3.859-55.514-10.85
	c-4.332-1.768-7.746-5.39-8.876-9.93c-1.34-5.385,0.51-10.914,4.577-14.384c31.569-26.936,51.597-66.98,51.597-111.713
	c0-4.74-0.226-9.427-0.666-14.052c-0.114-1.194,0.825-2.242,2.024-2.196c0.359,0.014,0.719,0.021,1.081,0.021
	c17.591,0,31.851-14.249,31.851-31.826s-14.26-31.826-31.851-31.826c-7.312,0-14.04,2.471-19.413,6.614
	c-0.963,0.742-2.342,0.474-2.954-0.576c-8.292-14.208-18.895-26.904-31.305-37.563c-2.589-2.224-4.512-5.186-5.129-8.543
	c-1.256-6.833,2.478-13.371,8.672-15.921c17.605-7.246,36.924-11.178,57.186-11.006C368.081,86.932,433.305,152.251,433.815,232.166
	z"/>
<path style="fill:#FFB154;" d="M433.814,232.166c0.489,76.651-57.79,139.8-132.462,147.12
	c60.391-19.281,104.22-77.927,103.796-147.159c-0.417-68.126-44.249-126.05-104.037-145.178
	C375.033,94.147,433.333,156.631,433.814,232.166z"/>
<path style="fill:#E0AA46;" d="M295.044,90.807c0-12.596,10.219-22.807,22.825-22.807c12.606,0,22.825,10.211,22.825,22.807
	s-10.219,22.807-22.825,22.807C305.262,113.614,295.044,103.403,295.044,90.807z M286.774,146.14
	c-11.285,0-21.381,5.06-28.16,13.025c10.448,17.861,17.224,38.122,19.303,59.759c2.838,0.698,5.803,1.075,8.857,1.075
	c20.412,0,36.958-16.534,36.958-36.93C323.732,162.674,307.186,146.14,286.774,146.14z M372.647,223.088
	c-12.606,0-22.825,10.211-22.825,22.807c0,12.596,10.219,22.807,22.825,22.807s22.825-10.211,22.825-22.807
	S385.253,223.088,372.647,223.088z M345.258,314.316c-17.648,0-31.955,14.295-31.955,31.93c0,11.758,6.365,22.025,15.836,27.566
	c17.595-5.276,33.802-13.755,47.943-24.763c0.081-0.924,0.13-1.858,0.13-2.803C377.212,328.611,362.906,314.316,345.258,314.316z"/>
<path style="fill:#FFCF56;" d="M349.049,12.805l-20.016,20C327.569,34.268,325.65,35,323.732,35c-1.92,0-3.841-0.733-5.305-2.199
	c-2.928-2.93-2.926-7.679,0.004-10.606l20.016-20c2.93-2.928,7.679-2.926,10.606,0.004C351.981,5.129,351.979,9.878,349.049,12.805z
	"/>
<path style="fill:#FFBF43;" d="M349.053,32.801c-1.464,1.466-3.385,2.199-5.305,2.199c-1.918,0-3.837-0.731-5.301-2.195l-20.016-20
	c-2.93-2.928-2.932-7.676-0.004-10.606c2.927-2.93,7.676-2.932,10.606-0.004l20.016,20
	C351.979,25.123,351.981,29.871,349.053,32.801z"/>
<path style="fill:#FFCF56;" d="M398.791,40c8.291,0,15.012,6.716,15.012,15s-6.721,15-15.012,15s-15.012-6.716-15.012-15
	S390.5,40,398.791,40z"/>
<path style="fill:#FFEF96;" d="M421.302,104.5v1c0,4.142-3.358,7.5-7.5,7.5s-7.5-3.358-7.5-7.5v-1c0-4.142,3.358-7.5,7.5-7.5
	S421.302,100.358,421.302,104.5z M273.694,31.5c-4.142,0-7.5,3.358-7.5,7.5v1c0,4.142,3.358,7.5,7.5,7.5s7.5-3.358,7.5-7.5v-1
	C281.194,34.858,277.836,31.5,273.694,31.5z"/>
<g>
</g>
<g>
</g>
<g>
</g>
<g>
</g>
<g>
</g>
<g>
</g>
<g>
</g>
<g>
</g>
<g>
</g>
<g>
</g>
<g>
</g>
<g>
</g>
<g>
</g>
<g>
</g>
<g>
</g>
</svg>
