<?xml version="1.0" encoding="UTF-8"?>
<svg width="1615px" height="1586px" viewBox="0 0 1615 1586" version="1.1" xmlns="http://www.w3.org/2000/svg" xmlns:xlink="http://www.w3.org/1999/xlink">
    <!-- Generator: Sketch 51.3 (57544) - http://www.bohemiancoding.com/sketch -->
    <title>stomach</title>
    <desc>Created with Sketch.</desc>
    <defs></defs>
    <g id="Page-1" stroke="none" stroke-width="1" fill="none" fill-rule="evenodd">
        <g id="Artboard-4" transform="translate(-16708.000000, -15246.000000)" fill="#E2846F" fill-rule="nonzero">
            <g id="stomach" transform="translate(16708.000000, 15246.000000)">
                <path d="M806.277471,2.11464835e-13 C806.277471,2.11464835e-13 776.169148,231.838422 839.773043,290.919027 C903.396775,350.024432 1010.13229,300.090384 1126.13687,218.17811 C1242.0373,136.330317 1512.45676,130.298749 1589.73859,433.350355 C1667.00059,736.406922 1580.65303,1280.8056 1139.77017,1433.42512 C698.907154,1586 703.440016,1313.73618 448.920291,1240.99526 C194.420402,1168.21466 180.767262,1462.83894 180.767262,1586 L1.30757147,1586 C1.30757147,1586 -28.3147336,1150.0654 194.425362,1063.70881 C417.14066,977.332378 535.307522,1163.70091 744.389518,1050.09314 C953.451676,936.440723 926.180112,672.77288 826.179415,572.736138 C726.203515,472.763879 635.308218,427.274145 635.308218,0 C635.303259,2.11464835e-13 806.277471,2.11464835e-13 806.277471,2.11464835e-13 Z" id="Shape"></path>
            </g>
        </g>
    </g>
</svg>